<?xml version="1.0"?>
<svg xmlns="http://www.w3.org/2000/svg" height="512px" viewBox="1 -52 511.99994 511" width="512px" class=""><g><g><path d="m432.550781 88.777344c-4.875 0-8.828125-3.953125-8.828125-8.828125v-79.449219h-406.066406c-9.738281.027344-17.6289062 7.917969-17.65625 17.65625v317.792969c.0273438 9.738281 7.917969 17.625 17.65625 17.652343h211.859375v-194.207031c0-19.5 15.808594-35.308593 35.3125-35.308593h158.894531c19.503906 0 35.3125 15.808593 35.3125 35.308593v194.207031h35.308594c9.738281-.027343 17.628906-7.914062 17.65625-17.652343v-247.171875zm0 0" fill="#e6e7e8" data-original="#62C8E4" class="" style="fill:#62C8E4" data-old_color="#9BD2E1"/><path d="m423.722656 79.949219c0 4.875 3.953125 8.828125 8.828125 8.828125h79.449219l-88.277344-88.277344zm0 0" fill="#acabb1" data-original="#ACABB1" class=""/><path d="m123.585938 168.222656c-14.625 0-26.484376-11.855468-26.484376-26.480468s11.859376-26.484376 26.484376-26.484376 26.484374 11.859376 26.484374 26.484376h26.480469c-.027343-25.824219-18.671875-47.867188-44.136719-52.171876v-18.449218h-17.65625v18.449218c-28.8125 5.042969-48.082031 32.492188-43.035156 61.308594 4.414063 25.226563 26.253906 43.679688 51.863282 43.828125 14.625 0 26.484374 11.855469 26.484374 26.484375 0 14.625-11.859374 26.480469-26.484374 26.480469s-26.484376-11.855469-26.484376-26.480469h-26.480468c.027344 25.824219 18.671875 47.863282 44.136718 52.167969v18.449219h17.65625v-18.449219c28.8125-5.042969 48.082032-32.492187 43.039063-61.304687-4.417969-25.230469-26.253906-43.683594-51.867187-43.832032zm0 0" fill="#ffde55" data-original="#F2F6F7" class="" style="fill:#F2F6F7" data-old_color="#00C6FF"/><path d="m423.722656 124.085938h-158.894531c-19.503906 0-35.3125 15.808593-35.3125 35.308593v211.863281c0 19.503907 15.808594 35.3125 35.3125 35.3125h158.894531c19.503906 0 35.3125-15.808593 35.3125-35.3125v-211.863281c0-19.5-15.808594-35.308593-35.3125-35.308593zm0 247.171874c0 4.875-3.949218 8.828126-8.828125 8.828126h-141.238281c-4.875 0-8.828125-3.953126-8.828125-8.828126v-123.585937c0-4.875 3.953125-8.828125 8.828125-8.828125h141.242188c4.875 0 8.828124 3.953125 8.828124 8.828125v123.585937zm0-167.722656c0 4.875-3.949218 8.828125-8.828125 8.828125h-141.238281c-4.875 0-8.828125-3.953125-8.828125-8.828125v-35.3125c0-4.875 3.953125-8.828125 8.828125-8.828125h141.242188c4.875 0 8.828124 3.953125 8.828124 8.828125v35.3125zm0 0" fill="#ffe477" data-original="#9CBCEE" class="" style="fill:#9CBCEE" data-old_color="#2FBAE2"/><path d="m273.65625 159.394531h141.242188c4.875 0 8.828124 3.953125 8.828124 8.828125v35.3125c0 4.875-3.953124 8.828125-8.828124 8.828125h-141.242188c-4.875 0-8.828125-3.953125-8.828125-8.828125v-35.3125c0-4.875 3.953125-8.828125 8.828125-8.828125zm0 0" fill="#ffc477" data-original="#FFC477" class=""/><path d="m414.894531 238.84375h-61.792969v141.242188h61.792969c4.878907 0 8.828125-3.953126 8.828125-8.828126v-123.585937c0-4.875-3.949218-8.828125-8.828125-8.828125zm0 0" fill="#ffb655" data-original="#FFB655" class=""/><path d="m273.65625 238.84375c-4.875 0-8.828125 3.953125-8.828125 8.828125v123.585937c0 4.875 3.953125 8.828126 8.828125 8.828126h79.445312v-141.242188zm0 0" fill="#ff7956" data-original="#FF7956" class=""/><path d="m273.65625 238.84375h79.445312v88.277344h-88.273437v-79.449219c0-4.875 3.953125-8.828125 8.828125-8.828125zm0 0" fill="#ff6243" data-original="#FF6243" class=""/><path d="m317.792969 274.15625v-17.65625h-17.65625v17.65625h-17.65625v17.652344h17.65625v17.65625h17.65625v-17.65625h17.65625v-17.652344zm0 0" fill="#ffde55" data-original="#F2F6F7" class="" style="fill:#F2F6F7" data-old_color="#00C6FF"/><path d="m282.480469 344.777344h52.96875v17.652344h-52.96875zm0 0" fill="#ffde55" data-original="#F2F6F7" class="" style="fill:#F2F6F7" data-old_color="#00C6FF"/><path d="m370.757812 318.292969h35.3125v17.65625h-35.3125zm0 0" fill="#ff6243" data-original="#FF6243" class=""/><path d="m370.757812 291.808594h35.3125v17.65625h-35.3125zm0 0" fill="#ff6243" data-original="#FF6243" class=""/><path d="m344.277344 177.050781h17.652344v17.65625h-17.652344zm0 0" fill="#ff9811" data-original="#FF9811" class=""/><path d="m379.585938 177.050781h17.65625v17.65625h-17.65625zm0 0" fill="#ff9811" data-original="#FF9811" class=""/><path d="m414.894531 115.257812h-158.894531c-19.5 0-35.3125 15.808594-35.3125 35.3125v203.03125h8.828125v-194.207031c0-19.5 15.808594-35.308593 35.3125-35.308593h158.894531c7.207032 0 14.234375 2.214843 20.136719 6.347656-6.582031-9.503906-17.40625-15.171875-28.964844-15.175782zm0 0" fill="#c6c5ca" data-original="#2FBAE2" class="active-path" style="fill:#2FBAE2" data-old_color="#00C6FF"/></g></g> </svg>
